<svg xmlns="http://www.w3.org/2000/svg" xmlns:xlink="http://www.w3.org/1999/xlink" width="489pt" height="249pt" viewBox="0.00 0.00 489.00 249.00">
<g id="graph0" class="graph" transform="scale(1 1) rotate(0) translate(4 245)">
<title>_10</title>
<polygon fill="white" stroke="none" points="-4,4 -4,-245 485,-245 485,4 -4,4"/>
<g id="clust1" class="cluster">
<title>cluster10diagram</title>
<polygon fill="none" stroke="black" points="8,-8 8,-233 473,-233 473,-8 8,-8"/>
<text text-anchor="start" x="214.62" y="-212.7" font-family="Times,serif" font-weight="bold" font-size="14.00">Diagram</text>
<text text-anchor="start" x="198.88" y="-198.7" font-family="Times,serif" font-size="14.00">name=aff_diag</text>
</g>
<g id="clust2" class="cluster">
<title>clusters10out</title>
<polygon fill="lightgrey" stroke="lightgrey" points="361.88,-104 361.88,-181 443.12,-181 443.12,-104 361.88,-104"/>
<text text-anchor="middle" x="402.5" y="-163.7" font-family="Times,serif" font-size="14.00">output ports</text>
</g>
<g id="clust3" class="cluster">
<title>cluster10subsystems</title>
<polygon fill="none" stroke="white" points="16,-16 16,-96 465,-96 465,-16 16,-16"/>
</g>
<!-- s10out -->
<g id="node1" class="node">
<title>s10out</title>
<polygon fill="none" stroke="green" points="381.88,-118.75 381.88,-141.25 423.12,-141.25 423.12,-118.75 381.88,-118.75"/>
<text text-anchor="start" x="384.88" y="-124.95" font-family="Times,serif" font-size="14.00">aff_y0</text>
</g>
<!-- s7 -->
<g id="node2" class="node">
<title>s7</title>
<polygon fill="none" stroke="black" points="32,-50 32,-84 168,-84 168,-50 32,-50"/>
<text text-anchor="start" x="34.75" y="-68.7" font-family="Times,serif" font-weight="bold" font-size="14.00">ConstantVectorSource</text>
<text text-anchor="start" x="73" y="-54.7" font-family="Times,serif" font-size="14.00">name=src</text>
<polyline fill="none" stroke="grey" points="32,-50 32,-28 93,-28"/>
<polygon fill="none" stroke="black" points="93,-28 93,-50 168,-50 168,-28 93,-28"/>
<text text-anchor="start" x="123.75" y="-33.7" font-family="Times,serif" font-size="14.00">y0</text>
</g>
<!-- s8 -->
<g id="node3" class="node">
<title>s8</title>
<polygon fill="none" stroke="black" points="220,-50 220,-84 304,-84 304,-50 220,-50"/>
<text text-anchor="start" x="223" y="-68.7" font-family="Times,serif" font-weight="bold" font-size="14.00">AffineSystem</text>
<text text-anchor="start" x="235.38" y="-54.7" font-family="Times,serif" font-size="14.00">name=aff</text>
<polygon fill="none" stroke="black" points="220,-28 220,-50 262,-50 262,-28 220,-28"/>
<text text-anchor="start" x="234.25" y="-33.7" font-family="Times,serif" font-size="14.00">u0</text>
<polygon fill="none" stroke="black" points="262,-28 262,-50 304,-50 304,-28 262,-28"/>
<text text-anchor="start" x="276.25" y="-33.7" font-family="Times,serif" font-size="14.00">y0</text>
</g>
<!-- s7&#45;&gt;s8 -->
<g id="edge1" class="edge">
<title>s7:e-&gt;s8:w</title>
<path fill="none" stroke="black" d="M169,-39C186.88,-39 193.97,-39 207.64,-39"/>
<polygon fill="black" stroke="black" points="207.49,-42.5 217.49,-39 207.49,-35.5 207.49,-42.5"/>
</g>
<!-- s8&#45;&gt;s10out -->
<g id="edge3" class="edge">
<title>s8:e-&gt;s10out:w</title>
<path fill="none" stroke="green" d="M305,-39C353.24,-39 332.25,-115.68 369.14,-128.26"/>
<polygon fill="green" stroke="green" points="368.59,-131.72 379,-129.77 369.65,-124.8 368.59,-131.72"/>
</g>
<!-- s9 -->
<g id="node4" class="node">
<title>s9</title>
<polygon fill="none" stroke="black" points="356,-50 356,-84 449,-84 449,-50 356,-50"/>
<text text-anchor="start" x="359" y="-68.7" font-family="Times,serif" font-weight="bold" font-size="14.00">VectorLogSink</text>
<text text-anchor="start" x="360.5" y="-54.7" font-family="Times,serif" font-size="14.00">name=aff_outp</text>
<polygon fill="none" stroke="black" points="356,-28 356,-50 413,-50 413,-28 356,-28"/>
<text text-anchor="start" x="373.25" y="-33.7" font-family="Times,serif" font-size="14.00">data</text>
<polyline fill="none" stroke="grey" points="413,-28 449,-28 449,-50"/>
</g>
<!-- s8&#45;&gt;s9 -->
<g id="edge2" class="edge">
<title>s8:e-&gt;s9:w</title>
<path fill="none" stroke="black" d="M305,-39C322.7,-39 329.72,-39 343.25,-39"/>
<polygon fill="black" stroke="black" points="342.99,-42.5 352.99,-39 342.99,-35.5 342.99,-42.5"/>
</g>
</g>
</svg>