<svg xmlns="http://www.w3.org/2000/svg" xmlns:xlink="http://www.w3.org/1999/xlink" width="714pt" height="238pt" viewBox="0.00 0.00 714.25 238.00">
<g id="graph0" class="graph" transform="scale(1 1) rotate(0) translate(4 234)">
<title>_10</title>
<polygon fill="white" stroke="none" points="-4,4 -4,-234 710.25,-234 710.25,4 -4,4"/>
<g id="clust1" class="cluster">
<title>cluster10diagram</title>
<polygon fill="none" stroke="black" points="8,-8 8,-222 698.25,-222 698.25,-8 8,-8"/>
<text text-anchor="start" x="327.25" y="-201.7" font-family="Times,serif" font-weight="bold" font-size="14.00">Diagram</text>
</g>
<g id="clust3" class="cluster">
<title>clusters10out</title>
<polygon fill="lightgrey" stroke="lightgrey" points="469.25,-104 469.25,-181 690.25,-181 690.25,-104 469.25,-104"/>
<text text-anchor="middle" x="579.75" y="-163.7" font-family="Times,serif" font-size="14.00">output ports</text>
</g>
<g id="clust2" class="cluster">
<title>clusters10in</title>
<polygon fill="lightgrey" stroke="lightgrey" points="16,-16 16,-93 239.25,-93 239.25,-16 16,-16"/>
<text text-anchor="middle" x="127.62" y="-75.7" font-family="Times,serif" font-size="14.00">input ports</text>
</g>
<g id="clust4" class="cluster">
<title>cluster10subsystems</title>
<polygon fill="none" stroke="white" points="259.25,-16 259.25,-96 642.25,-96 642.25,-16 259.25,-16"/>
</g>
<!-- s10in -->
<g id="node1" class="node">
<title>s10in</title>
<polygon fill="none" stroke="blue" points="35,-30.75 35,-53.25 220.25,-53.25 220.25,-30.75 35,-30.75"/>
<text text-anchor="start" x="38" y="-36.95" font-family="Times,serif" font-size="14.00">double_pendulum_elbow_torque</text>
</g>
<!-- s8 -->
<g id="node3" class="node">
<title>s8</title>
<polygon fill="none" stroke="black" points="275.25,-50 275.25,-84 433.25,-84 433.25,-50 275.25,-50"/>
<text text-anchor="start" x="315.25" y="-68.7" font-family="Times,serif" font-weight="bold" font-size="14.00">AcrobotPlant</text>
<text text-anchor="start" x="286" y="-54.7" font-family="Times,serif" font-size="14.00">name=double_pendulum</text>
<polygon fill="none" stroke="black" points="275.25,-28 275.25,-50 355.25,-50 355.25,-28 275.25,-28"/>
<text text-anchor="start" x="278.12" y="-33.7" font-family="Times,serif" font-size="14.00">elbow_torque</text>
<polygon fill="none" stroke="black" points="355.25,-28 355.25,-50 433.25,-50 433.25,-28 355.25,-28"/>
<text text-anchor="start" x="358.25" y="-33.7" font-family="Times,serif" font-size="14.00">acrobot_state</text>
</g>
<!-- s10in&#45;&gt;s8 -->
<g id="edge2" class="edge">
<title>s10in:e-&gt;s8:w</title>
<path fill="none" stroke="blue" d="M221.62,-42C240.84,-42 248.18,-39.98 263.13,-39.26"/>
<polygon fill="blue" stroke="blue" points="262.82,-42.76 272.74,-39.03 262.66,-35.77 262.82,-42.76"/>
</g>
<!-- s10out -->
<g id="node2" class="node">
<title>s10out</title>
<polygon fill="none" stroke="green" points="488.25,-118.75 488.25,-141.25 671.25,-141.25 671.25,-118.75 488.25,-118.75"/>
<text text-anchor="start" x="491.25" y="-124.95" font-family="Times,serif" font-size="14.00">double_pendulum_acrobot_state</text>
</g>
<!-- s8&#45;&gt;s10out -->
<g id="edge3" class="edge">
<title>s8:e-&gt;s10out:w</title>
<path fill="none" stroke="green" d="M434.25,-39C476.57,-39 446.95,-113.74 475.78,-127.75"/>
<polygon fill="green" stroke="green" points="474.77,-131.12 485.27,-129.7 476.17,-124.26 474.77,-131.12"/>
</g>
<!-- s9 -->
<g id="node4" class="node">
<title>s9</title>
<polygon fill="none" stroke="black" points="533.25,-50 533.25,-72 626.25,-72 626.25,-50 533.25,-50"/>
<text text-anchor="start" x="536.25" y="-56.7" font-family="Times,serif" font-weight="bold" font-size="14.00">VectorLogSink</text>
<polygon fill="none" stroke="black" points="533.25,-28 533.25,-50 590.25,-50 590.25,-28 533.25,-28"/>
<text text-anchor="start" x="550.5" y="-33.7" font-family="Times,serif" font-size="14.00">data</text>
<polyline fill="none" stroke="grey" points="590.25,-28 626.25,-28 626.25,-50"/>
</g>
<!-- s8&#45;&gt;s9 -->
<g id="edge1" class="edge">
<title>s8:e-&gt;s9:w</title>
<path fill="none" stroke="black" d="M434.25,-39C473.52,-39 486.1,-39 520.37,-39"/>
<polygon fill="black" stroke="black" points="520.24,-42.5 530.24,-39 520.24,-35.5 520.24,-42.5"/>
</g>
</g>
</svg>